# xmcd CD database file
#
# Track frame offsets:
#	180
#	23830
#	50911
#	71917
#	104849
#	124773
#	148040
#	171657
#	193743
#	216275
#	236785
#
# Disc length: 3689 seconds
#
# Revision: 0
# Processed by: cddbd v1.4PL0 Copyright (c) Steve Scherf et al.
# Submitted via: CDex 1.40Beta9
#
DISCID=bb0e670b
DTITLE=Junior Valentine and The All Stars and The Hawktones - Live from the Kitchen
DYEAR=1996
DGENRE=Blues
TTITLE0=Walkin' The Dog
TTITLE1=You've Got To Love Her With A Feeling
TTITLE2=Tore Down
TTITLE3=Mustang Sally
TTITLE4=Give Me Somethin' Fried
TTITLE5=Don't Be Messin' With My Bread
TTITLE6=Born Blind
TTITLE7=Just Your Fool
TTITLE8=Baby, Scratch My Back
TTITLE9=Boogie All Night
TTITLE10=Real Gone Lover
EXTD=YEAR: 1996 ID3G: 0
EXTT0=
EXTT1=
EXTT2=
EXTT3=
EXTT4=
EXTT5=
EXTT6=
EXTT7=
EXTT8=
EXTT9=
EXTT10=
PLAYORDER=
